<svg xmlns="http://www.w3.org/2000/svg" xmlns:xlink="http://www.w3.org/1999/xlink" width="100" zoomAndPan="magnify" viewBox="0 0 75 30.000001" height="40" preserveAspectRatio="xMidYMid meet" version="1.0"><defs><g/><clipPath id="14e3dca0ed"><path d="M 1.210938 0 L 73.789062 0 L 73.789062 29.03125 L 1.210938 29.03125 Z M 1.210938 0 " clip-rule="nonzero"/></clipPath></defs><g clip-path="url(#14e3dca0ed)"><path fill="#ffffff" d="M 1.210938 0 L 73.789062 0 L 73.789062 29.03125 L 1.210938 29.03125 Z M 1.210938 0 " fill-opacity="1" fill-rule="nonzero"/><path fill="#ffffff" d="M 1.210938 0 L 73.789062 0 L 73.789062 29.03125 L 1.210938 29.03125 Z M 1.210938 0 " fill-opacity="1" fill-rule="nonzero"/></g><g fill="#000000" fill-opacity="1"><g transform="translate(4.645916, 21.048389)"><g><path d="M 0.875 -11.96875 L 5.15625 -11.96875 C 6.300781 -11.96875 7.238281 -11.660156 7.96875 -11.046875 C 8.695312 -10.429688 9.0625 -9.554688 9.0625 -8.421875 C 9.0625 -7.535156 8.835938 -6.796875 8.390625 -6.203125 C 7.953125 -5.609375 7.359375 -5.191406 6.609375 -4.953125 L 10.734375 0 L 7.265625 0 L 3.59375 -4.734375 L 3.59375 0 L 0.875 0 Z M 3.59375 -6.65625 L 3.921875 -6.65625 C 4.171875 -6.65625 4.378906 -6.660156 4.546875 -6.671875 C 4.722656 -6.679688 4.921875 -6.710938 5.140625 -6.765625 C 5.367188 -6.828125 5.550781 -6.910156 5.6875 -7.015625 C 5.820312 -7.128906 5.9375 -7.285156 6.03125 -7.484375 C 6.132812 -7.691406 6.1875 -7.941406 6.1875 -8.234375 C 6.1875 -8.523438 6.132812 -8.769531 6.03125 -8.96875 C 5.9375 -9.175781 5.820312 -9.332031 5.6875 -9.4375 C 5.550781 -9.539062 5.367188 -9.617188 5.140625 -9.671875 C 4.921875 -9.734375 4.722656 -9.769531 4.546875 -9.78125 C 4.378906 -9.789062 4.171875 -9.796875 3.921875 -9.796875 L 3.59375 -9.796875 Z M 3.59375 -6.65625 "/></g></g></g><g fill="#000000" fill-opacity="1"><g transform="translate(15.039459, 21.048389)"><g><path d="M 7.71875 -11.96875 L 7.71875 -9.578125 L 3.59375 -9.578125 L 3.59375 -7.203125 L 7.546875 -7.203125 L 7.546875 -4.796875 L 3.59375 -4.796875 L 3.59375 -2.390625 L 7.71875 -2.390625 L 7.71875 0 L 0.875 0 L 0.875 -11.96875 Z M 7.71875 -11.96875 "/></g></g></g><g fill="#000000" fill-opacity="1"><g transform="translate(23.458807, 21.048389)"><g><path d="M 7.25 -2.46875 C 7.664062 -2.46875 8.066406 -2.53125 8.453125 -2.65625 C 8.847656 -2.78125 9.132812 -2.898438 9.3125 -3.015625 L 9.59375 -3.203125 L 10.75 -0.890625 C 10.71875 -0.859375 10.664062 -0.816406 10.59375 -0.765625 C 10.53125 -0.722656 10.375 -0.632812 10.125 -0.5 C 9.875 -0.375 9.609375 -0.257812 9.328125 -0.15625 C 9.046875 -0.0625 8.675781 0.0195312 8.21875 0.09375 C 7.769531 0.175781 7.304688 0.21875 6.828125 0.21875 C 5.710938 0.21875 4.65625 -0.0507812 3.65625 -0.59375 C 2.65625 -1.144531 1.847656 -1.898438 1.234375 -2.859375 C 0.628906 -3.816406 0.328125 -4.851562 0.328125 -5.96875 C 0.328125 -6.8125 0.503906 -7.617188 0.859375 -8.390625 C 1.222656 -9.160156 1.703125 -9.820312 2.296875 -10.375 C 2.890625 -10.925781 3.582031 -11.363281 4.375 -11.6875 C 5.175781 -12.019531 5.992188 -12.1875 6.828125 -12.1875 C 7.597656 -12.1875 8.304688 -12.09375 8.953125 -11.90625 C 9.609375 -11.726562 10.070312 -11.546875 10.34375 -11.359375 L 10.75 -11.09375 L 9.59375 -8.765625 C 9.53125 -8.828125 9.429688 -8.894531 9.296875 -8.96875 C 9.160156 -9.050781 8.890625 -9.160156 8.484375 -9.296875 C 8.078125 -9.429688 7.664062 -9.5 7.25 -9.5 C 6.582031 -9.5 5.988281 -9.394531 5.46875 -9.1875 C 4.945312 -8.976562 4.535156 -8.695312 4.234375 -8.34375 C 3.929688 -8 3.695312 -7.625 3.53125 -7.21875 C 3.375 -6.820312 3.296875 -6.414062 3.296875 -6 C 3.296875 -5.082031 3.632812 -4.265625 4.3125 -3.546875 C 5 -2.828125 5.976562 -2.46875 7.25 -2.46875 Z M 7.25 -2.46875 "/></g></g></g><g fill="#000000" fill-opacity="1"><g transform="translate(34.389439, 21.048389)"><g><path d="M 7.71875 -11.96875 L 7.71875 -9.578125 L 3.59375 -9.578125 L 3.59375 -7.203125 L 7.546875 -7.203125 L 7.546875 -4.796875 L 3.59375 -4.796875 L 3.59375 -2.390625 L 7.71875 -2.390625 L 7.71875 0 L 0.875 0 L 0.875 -11.96875 Z M 7.71875 -11.96875 "/></g></g></g><g fill="#000000" fill-opacity="1"><g transform="translate(42.808787, 21.048389)"><g><path d="M 0.109375 -9.578125 L 0.109375 -11.96875 L 8.53125 -11.96875 L 8.53125 -9.578125 L 5.6875 -9.578125 L 5.6875 0 L 2.96875 0 L 2.96875 -9.578125 Z M 0.109375 -9.578125 "/></g></g></g><g fill="#000000" fill-opacity="1"><g transform="translate(51.460387, 21.048389)"><g><path d="M 3.59375 -11.96875 L 3.59375 -2.390625 L 7.71875 -2.390625 L 7.71875 0 L 0.875 0 L 0.875 -11.96875 Z M 3.59375 -11.96875 "/></g></g></g><g fill="#000000" fill-opacity="1"><g transform="translate(59.661991, 21.048389)"><g><path d="M -0.4375 -11.96875 L 2.84375 -11.96875 L 5.34375 -8.140625 L 7.84375 -11.96875 L 11.125 -11.96875 L 6.703125 -5.375 L 6.703125 0 L 3.984375 0 L 3.984375 -5.375 Z M -0.4375 -11.96875 "/></g></g></g></svg>